<?xml version="1.0" encoding="UTF-8"?>
<svg id="uuid-6caf552d-5f38-4a9d-a5c3-e3591d6eca26" data-name="Layer 2" xmlns="http://www.w3.org/2000/svg" width="41.1" height="25.2" viewBox="0 0 41.1 25.2">
  <defs>
    <style>
      .uuid-263f46ff-c80a-48b3-8239-5829d8785aea {
        fill: #150a34;
      }
    </style>
  </defs>
  <g id="uuid-7bdcf848-201e-4a34-9038-a38bccfe12b7" data-name="Capa 1">
    <g>
      <path class="uuid-263f46ff-c80a-48b3-8239-5829d8785aea" d="M1.4,25l15.3-15.7c.3-.3,.3-.8,0-1.2-.3-.3-.8-.3-1.2,0L.2,23.8c-.3,.3-.3,.8,0,1.2,.3,.3,.8,.3,1.2,0"/>
      <path class="uuid-263f46ff-c80a-48b3-8239-5829d8785aea" d="M28,15.8l-11.4-7.9c-.4-.3-.9-.2-1.1,.2-.3,.4-.2,.9,.2,1.1l11.4,7.9c.4,.3,.9,.2,1.1-.2,.3-.4,.2-.9-.2-1.1"/>
      <path class="uuid-263f46ff-c80a-48b3-8239-5829d8785aea" d="M28.2,17L39.6,1.3c.3-.4,.2-.9-.2-1.2s-.9-.2-1.2,.2l-11.4,15.7c-.3,.4-.2,.9,.2,1.2s.9,.2,1.2-.2"/>
      <path class="uuid-263f46ff-c80a-48b3-8239-5829d8785aea" d="M41.1,8.1l-1.3-7.5c0-.4-.5-.7-1-.7-.4,0-.7,.5-.7,1l1.3,7.5c0,.4,.5,.7,1,.7,.4,0,.7-.5,.7-1"/>
      <path class="uuid-263f46ff-c80a-48b3-8239-5829d8785aea" d="M31,3l8.1-1.3c.4,0,.8-.5,.7-.9,0-.4-.5-.8-.9-.7l-8.1,1.3c-.4,0-.8,.5-.7,.9,0,.4,.5,.8,.9,.7"/>
    </g>
  </g>
</svg>