<?xml version="1.0" encoding="UTF-8"?>
<svg id="uuid-779aeb1b-b21d-4266-a525-0f5afefc26e7" data-name="Layer 2" xmlns="http://www.w3.org/2000/svg" width="36.5" height="31.2" viewBox="0 0 36.5 31.2">
  <defs>
    <style>
      .uuid-a83a2e18-8c3b-4e81-ad60-b2ea73c8eb55 {
        fill: #150a34;
      }
    </style>
  </defs>
  <g id="uuid-7b3372b5-b92d-4119-8070-357bd9309190" data-name="Capa 1">
    <g>
      <path class="uuid-a83a2e18-8c3b-4e81-ad60-b2ea73c8eb55" d="M25.7,15.6h-.6c0,1.9-.8,3.6-2,4.8-1.2,1.2-2.9,2-4.8,2-1.9,0-3.6-.8-4.8-2-1.2-1.2-2-3-2-4.8,0-1.9,.8-3.6,2-4.8,1.2-1.2,2.9-2,4.8-2,1.9,0,3.6,.8,4.8,2,1.2,1.2,2,2.9,2,4.8h1.3c0-4.5-3.6-8.1-8.1-8.1-4.5,0-8.1,3.6-8.1,8.1,0,4.5,3.6,8.1,8.1,8.1s8.1-3.6,8.1-8.1h-.6Z"/>
      <path class="uuid-a83a2e18-8c3b-4e81-ad60-b2ea73c8eb55" d="M19.9,12.6c-.2-.1-.8-.4-1.5-.4,0,0-.2,0-.3,0v0c-.1,0-.4,0-.7,.1-.3,.1-.6,.3-.9,.6-.3,.4-.5,.9-.5,1.4,0,.3,0,.6,.2,.8,.3,.6,.8,.9,.9,.9,.3,.2,.7,.2,.9,.2,.2,0,.3,0,.4,0,.1,0,.2,0,.3,0h0c.1,0,.3,.2,.5,.3,.1,.1,.2,.3,.2,.4h0c0,.3-.2,.5-.2,.5h0c0,0-.2,.1-.3,.2-.1,0-.3,0-.4,.1-.2,0-.3,0-.4,0-.4,0-.8-.1-1.1-.2-.3-.1-.7,0-.8,.3-.1,.3,0,.7,.3,.8,.4,.1,.9,.3,1.6,.3,.2,0,.4,0,.7,0,.2,0,.4,0,.7-.2,.3-.1,.5-.3,.8-.6h0c0,0,.5-.5,.5-1.3v-.2c0-.5-.3-.9-.6-1.2-.3-.3-.6-.5-.9-.6h0c-.3-.1-.6-.1-.8-.1-.2,0-.3,0-.4,0-.1,0-.2,0-.3,0,0,0-.3-.2-.4-.4,0,0,0-.2,0-.3,0-.2,0-.4,.2-.6,.1-.1,.2-.2,.4-.2,.1,0,.3,0,.4,0h.2c.4,0,.8,.2,.9,.2,.3,.2,.7,0,.9-.2,.2-.3,0-.7-.2-.9h0Z"/>
      <path class="uuid-a83a2e18-8c3b-4e81-ad60-b2ea73c8eb55" d="M17.6,11.7v1.2c0,.3,.3,.6,.6,.6s.6-.3,.6-.6v-1.2c0-.3-.3-.6-.6-.6s-.6,.3-.6,.6"/>
      <path class="uuid-a83a2e18-8c3b-4e81-ad60-b2ea73c8eb55" d="M18.9,19.7v1.2c0,.3,.3,.6,.6,.6s.6-.3,.6-.6v-1.2c0-.3-.3-.6-.6-.6s-.6,.3-.6,.6"/>
      <path class="uuid-a83a2e18-8c3b-4e81-ad60-b2ea73c8eb55" d="M1.6,7.7V1.6h6.9c.4,0,.8-.4,.8-.8S9,0,8.5,0H0V7.7c0,.4,.4,.8,.8,.8s.8-.4,.8-.8h0Z"/>
      <path class="uuid-a83a2e18-8c3b-4e81-ad60-b2ea73c8eb55" d="M36.5,7.7V0h-8.5c-.4,0-.8,.4-.8,.8s.4,.8,.8,.8h6.9V7.7c0,.4,.4,.8,.8,.8s.8-.4,.8-.8h0Z"/>
      <path class="uuid-a83a2e18-8c3b-4e81-ad60-b2ea73c8eb55" d="M34.9,23.5v6.1h-6.9c-.4,0-.8,.4-.8,.8s.4,.8,.8,.8h8.5v-7.7c0-.4-.4-.8-.8-.8s-.8,.4-.8,.8h0Z"/>
      <path class="uuid-a83a2e18-8c3b-4e81-ad60-b2ea73c8eb55" d="M0,23.5v7.7H8.5c.4,0,.8-.4,.8-.8s-.4-.8-.8-.8H1.6v-6.1c0-.4-.4-.8-.8-.8S0,23,0,23.5h0Z"/>
    </g>
  </g>
</svg>