<?xml version="1.0" encoding="UTF-8"?>
<svg id="uuid-e3cad6b6-c924-47c3-8cd0-bd9a506f5f20" data-name="Layer 2" xmlns="http://www.w3.org/2000/svg" width="17.7" height="29.8" viewBox="0 0 17.7 29.8">
  <defs>
    <style>
      .uuid-ee411a42-832b-4f18-a723-b7d11b05ddd9 {
        fill: #150a34;
      }
    </style>
  </defs>
  <g id="uuid-79e150df-11cb-47c3-9f8e-9beb3e90e517" data-name="Capa 1">
    <g>
      <path class="uuid-ee411a42-832b-4f18-a723-b7d11b05ddd9" d="M14.2,14.9h-.5c0,2.7-2.1,4.8-4.8,4.8-2.7,0-4.8-2.1-4.8-4.8,0-2.7,2.1-4.8,4.8-4.8,2.7,0,4.8,2.2,4.8,4.8h1c0-1.6-.7-3.1-1.7-4.1-1.1-1.1-2.5-1.7-4.1-1.7-1.6,0-3.1,.7-4.1,1.7-1.1,1.1-1.7,2.5-1.7,4.1,0,1.6,.7,3.1,1.7,4.1,1.1,1.1,2.5,1.7,4.1,1.7,1.6,0,3.1-.7,4.1-1.7,1.1-1.1,1.7-2.5,1.7-4.1h-.5Z"/>
      <path class="uuid-ee411a42-832b-4f18-a723-b7d11b05ddd9" d="M10.2,12.5c-.2-.1-.6-.3-1.2-.3,0,0-.2,0-.2,0h0c-.1,0-.3,0-.6,.1-.2,0-.5,.2-.7,.5-.3,.3-.4,.7-.4,1.1,0,.2,0,.4,.1,.7,.2,.5,.6,.7,.7,.8,.3,.2,.5,.2,.7,.2,.1,0,.2,0,.3,0,0,0,.2,0,.3,0h0c.1,0,.3,.1,.4,.2,.1,.1,.2,.2,.2,.3h0c0,.2-.1,.4-.1,.4h0c0,0-.1,.1-.2,.1,0,0-.2,0-.4,0h0c-.1,0-.2,0-.4,0-.4,0-.7,0-.9-.2-.3-.1-.6,0-.7,.3-.1,.3,0,.6,.3,.7,.3,.1,.7,.3,1.3,.3,.2,0,.4,0,.5,0h0c.1,0,.3,0,.5-.1,.2,0,.4-.2,.6-.4h0c0,0,.4-.4,.4-1,0,0,0-.1,0-.2,0-.4-.2-.7-.5-.9-.2-.2-.5-.4-.7-.5h0c-.2,0-.5-.1-.6-.1-.1,0-.3,0-.3,0-.1,0-.1,0-.3,0,0,0-.2-.1-.3-.3,0,0,0-.2,0-.2,0-.2,0-.3,.2-.5,0,0,.2-.2,.3-.2,.1,0,.2,0,.3,0h.1c.3,0,.6,.1,.7,.2,.2,.1,.6,0,.7-.2,.1-.2,0-.6-.2-.7h0Z"/>
      <path class="uuid-ee411a42-832b-4f18-a723-b7d11b05ddd9" d="M8.3,11.7v.9c0,.3,.2,.5,.5,.5s.5-.2,.5-.5v-.9c0-.3-.2-.5-.5-.5s-.5,.2-.5,.5"/>
      <path class="uuid-ee411a42-832b-4f18-a723-b7d11b05ddd9" d="M8.3,17.2v.9c0,.3,.2,.5,.5,.5s.5-.2,.5-.5v-.9c0-.3-.2-.5-.5-.5s-.5,.2-.5,.5"/>
      <path class="uuid-ee411a42-832b-4f18-a723-b7d11b05ddd9" d="M.5,3.2H0V26.6C0,26.8,0,26.9,.1,27c0,0,.2,.1,.4,.1H17.2c.1,0,.3,0,.4-.1s.1-.2,.1-.4V3.2c0-.1,0-.3-.1-.4,0,0-.2-.1-.4-.1H.5c-.1,0-.3,0-.4,.1C0,2.9,0,3.1,0,3.2H.5v.5H16.7V26.1H1V3.2H.5v0ZM8.8,20.2v-.5c-2.7,0-4.8-2.1-4.8-4.8,0-2.7,2.1-4.8,4.8-4.8,2.7,0,4.8,2.2,4.8,4.8,0,2.7-2.1,4.8-4.8,4.8v1c1.6,0,3.1-.7,4.1-1.7,1.1-1.1,1.7-2.5,1.7-4.1,0-1.6-.7-3.1-1.7-4.1-1.1-1.1-2.5-1.7-4.1-1.7-1.6,0-3.1,.7-4.1,1.7-1.1,1.1-1.7,2.5-1.7,4.1,0,1.6,.7,3.1,1.7,4.1,1.1,1.1,2.5,1.7,4.1,1.7v-.5Z"/>
      <path class="uuid-ee411a42-832b-4f18-a723-b7d11b05ddd9" d="M17.2,2.7h-.5v.5h.5v-.5H.5v.5h.5v-.5c0-.9,.8-1.7,1.7-1.7H15c.9,0,1.7,.8,1.7,1.7h1c0-.8-.3-1.4-.8-1.9C16.4,.3,15.7,0,15,0H2.7C2,0,1.3,.3,.8,.8,.3,1.3,0,2,0,2.7v.5C0,3.3,0,3.5,.1,3.6c0,0,.2,.1,.4,.1H17.2c.1,0,.3,0,.4-.1s.1-.2,.1-.4v-.5h-.5Z"/>
      <path class="uuid-ee411a42-832b-4f18-a723-b7d11b05ddd9" d="M.5,26.6v.5H17.2v-.5h-.5v.5c0,.9-.8,1.7-1.7,1.7H2.7c-.9,0-1.7-.8-1.7-1.7v-.5H.5v0H0v.5c0,1.5,1.2,2.7,2.7,2.7H15c1.5,0,2.7-1.2,2.7-2.7v-.5c0-.1,0-.3-.1-.4,0,0-.2-.1-.4-.1H.5c-.1,0-.3,0-.4,.1C0,26.4,0,26.5,0,26.6H.5Z"/>
    </g>
  </g>
</svg>