
<svg xmlns="http://www.w3.org/2000/svg" width="127.9" height="54.7" viewBox="0 0 127.9 54.7">
  
        <path  d="M59.6,32.7c.5,.6,.7,1.3,.7,2s-.2,1.2-.5,1.7c-.3,.5-.8,.9-1.4,1.2-.6,.3-1.4,.4-2.2,.4h-5v-12.6h4.8c.9,0,1.6,.1,2.2,.4,.6,.3,1.1,.7,1.4,1.2,.3,.5,.5,1,.5,1.6s-.2,1.3-.6,1.8c-.4,.5-.9,.8-1.6,1.1,.7,.1,1.3,.5,1.7,1.1Zm-6.4-1.9h2.6c.7,0,1.2-.2,1.6-.5,.4-.3,.6-.8,.6-1.3s-.2-1-.6-1.3c-.4-.3-.9-.5-1.6-.5h-2.6v3.6Zm4.4,5.1c.4-.3,.6-.8,.6-1.4s-.2-1.1-.6-1.5-1-.5-1.7-.5h-2.7v3.9h2.8c.7,0,1.3-.2,1.7-.5Z"/>
        <path  d="M65.1,37.4c-1-.6-1.8-1.3-2.3-2.3-.6-1-.9-2.1-.9-3.3s.3-2.3,.9-3.3c.6-1,1.4-1.7,2.3-2.3,1-.6,2.1-.8,3.2-.8s2.3,.3,3.3,.8c1,.6,1.8,1.3,2.3,2.3,.6,1,.9,2.1,.9,3.3s-.3,2.3-.9,3.3c-.6,1-1.3,1.8-2.3,2.3s-2.1,.8-3.3,.8-2.3-.3-3.2-.8Zm5.5-1.5c.7-.4,1.2-.9,1.5-1.6,.4-.7,.6-1.5,.6-2.5s-.2-1.7-.6-2.5c-.4-.7-.9-1.2-1.5-1.6-.7-.4-1.4-.6-2.2-.6s-1.6,.2-2.2,.6c-.7,.4-1.2,.9-1.5,1.6-.4,.7-.6,1.5-.6,2.5s.2,1.8,.6,2.5c.4,.7,.9,1.3,1.5,1.6,.7,.4,1.4,.6,2.2,.6s1.6-.2,2.2-.6Z"/>
        <path  d="M77,28.4c.6-1,1.4-1.7,2.3-2.3,1-.6,2.1-.8,3.2-.8s2.5,.3,3.6,1c1,.7,1.8,1.6,2.3,2.8h-2.5c-.3-.7-.8-1.2-1.4-1.5s-1.3-.5-2-.5-1.6,.2-2.2,.6c-.7,.4-1.2,.9-1.5,1.6-.4,.7-.6,1.5-.6,2.5s.2,1.8,.6,2.5c.4,.7,.9,1.2,1.5,1.6,.7,.4,1.4,.6,2.2,.6s1.4-.2,2-.5c.6-.3,1-.8,1.4-1.5h2.5c-.5,1.2-1.2,2.1-2.3,2.8-1,.7-2.2,1-3.6,1s-2.3-.3-3.3-.8c-1-.6-1.8-1.3-2.3-2.3-.6-1-.9-2.1-.9-3.3s.3-2.3,.9-3.3Z"/>
        <path  d="M98.5,35.5h-5.3l-.9,2.6h-2.2l4.5-12.6h2.4l4.5,12.6h-2.2l-.9-2.6Zm-.6-1.7l-2.1-5.9-2.1,5.9h4.1Z"/>
        <path  d="M113.9,38.1h-2.1l-6.2-9.4v9.4h-2.1v-12.6h2.1l6.2,9.4v-9.4h2.1v12.6Z"/>
        <path  d="M124.2,35.5h-5.3l-.9,2.6h-2.2l4.5-12.6h2.4l4.5,12.6h-2.2l-.9-2.6Zm-.6-1.7l-2.1-5.9-2.1,5.9h4.1Z"/>
    
    
        <path  d="M55.4,49.2v.5h-3.9v-.5h3.9Z"/>
        <path  d="M63.1,43.6l-2,5.4h-.6l-2-5.4h.6l1.8,4.8,1.8-4.8h.6Z"/>
        <path  d="M69.3,47.7h-2.4l-.5,1.3h-.6l2-5.3h.6l1.9,5.3h-.6l-.5-1.3Zm-.2-.4l-1.1-2.9-1.1,2.9h2.1Z"/>
        <path  d="M74.1,48.5h1.9v.4h-2.5v-5.4h.5v4.9Z"/>
        <path  d="M80.1,48.7c-.4-.2-.7-.6-1-1-.2-.4-.3-.9-.3-1.4s.1-1,.3-1.4c.2-.4,.6-.7,1-1,.4-.2,.9-.3,1.3-.3s1,.1,1.4,.3c.4,.2,.7,.6,1,1,.2,.4,.3,.9,.3,1.4s-.1,1-.3,1.4c-.2,.4-.5,.7-1,1-.4,.2-.9,.3-1.4,.3s-.9-.1-1.3-.3Zm2.4-.4c.3-.2,.6-.4,.8-.8,.2-.3,.3-.7,.3-1.2s0-.9-.3-1.2c-.2-.3-.4-.6-.8-.8-.3-.2-.7-.3-1.1-.3s-.8,0-1.1,.3c-.3,.2-.6,.4-.8,.8-.2,.3-.3,.7-.3,1.2s0,.9,.3,1.2c.2,.3,.4,.6,.8,.8,.3,.2,.7,.3,1.1,.3s.8,0,1.1-.3Z"/>
        <path  d="M90.3,49l-1.3-2.2h-1v2.2h-.5v-5.4h1.6c.6,0,1.1,.1,1.4,.4,.3,.3,.5,.7,.5,1.1s-.1,.7-.3,1c-.2,.3-.6,.5-1,.5l1.4,2.3h-.6Zm-2.3-2.7h1.1c.4,0,.7-.1,.9-.3,.2-.2,.3-.5,.3-.8s-.1-.6-.3-.8c-.2-.2-.5-.3-1-.3h-1.1v2.2Z"/>
        <path  d="M94.8,44v2h2v.4h-2v2h2.3v.4h-2.8v-5.4h2.8v.4h-2.3Z"/>
        <path  d="M101.1,48.8c-.3-.1-.5-.3-.6-.5-.2-.2-.2-.5-.2-.7h.6c0,.3,.1,.5,.3,.7,.2,.2,.5,.3,.9,.3s.7,0,.9-.3c.2-.2,.3-.4,.3-.7s0-.4-.2-.6c-.1-.1-.3-.2-.4-.3-.2,0-.4-.1-.7-.2-.4,0-.6-.2-.9-.3-.2,0-.4-.2-.5-.4s-.2-.5-.2-.8,0-.5,.2-.7c.1-.2,.3-.4,.6-.5,.3-.1,.6-.2,.9-.2,.5,0,.9,.1,1.2,.4s.5,.6,.5,.9h-.6c0-.2-.2-.4-.4-.6-.2-.2-.5-.3-.8-.3s-.6,0-.8,.3c-.2,.2-.3,.4-.3,.7s0,.4,.2,.5c.1,.1,.3,.2,.4,.3,.2,0,.4,.1,.7,.2,.3,0,.6,.2,.8,.3,.2,0,.4,.2,.5,.4,.1,.2,.2,.5,.2,.8s0,.5-.2,.7c-.1,.2-.3,.4-.6,.5s-.6,.2-.9,.2-.7,0-.9-.2Z"/>
     
      <path  d="M36.8,36.6c0-.1,0-.2,0-.3h0c-.4-9.9-8.5-17.8-18.4-17.8V54.7c10,0,18.1-7.9,18.4-17.8h0c0-.1,0-.2,0-.3Z"/>
      <path  d="M18.4,0H0C0,10.2,8.3,18.4,18.4,18.4V0Z"/>
   
  </g>
</svg>